# xmcd CD database file
#
# Track frame offsets:
#	150
#	27490
#	40924
#	53207
#	66459
#	93203
#	107168
#	119959
#	132649
#	145273
#	159368
#	173346
#	187475
#	205947
#	218417
#	233331
#	248129
#	261088
#	277179
#
# Disc length: 3884 seconds
#
# Revision: 2
# Processed by: cddbd v1.5.2PL0 Copyright (c) Steve Scherf et al.
# Submitted via: CDex 1.51
#
DISCID=220f2a13
DTITLE=Sampler - Classic Blues Songs From The 1920`s - Vol. 9l
DYEAR=2011
DGENRE=Blues
TTITLE0=Mama Don`t Allow No Easy Riders Here - Tampa Red
TTITLE1=Big Chief Blues - Furry Lewis
TTITLE2=Jinx Blues - Ora Brown
TTITLE3=Jesus Is A Dying Bed Maker - Charley Patton
TTITLE4=Rope Strechin' Blues - Part 1&11 - Blind Blake
TTITLE5=Fence Breakin' Yellin' Blues - Blind Lemon Jefferson
TTITLE6=Fogyism - Ida Cox
TTITLE7=Come On In ( Ain`t Nobody Here ) - Harum Scarum
TTITLE8=Evil Woman Spell - Charley Spand
TTITLE9=Lawdy Lawdy Woried Blues - Teddy Darby
TTITLE10=Papa, Don`t Tear Your Pants - Papa Charlie Jackson
TTITLE11=In That Pearly White City Above - Blind Joel Taggart
TTITLE12=Precious Lord - Blind Joel Taggart
TTITLE13=Little Black Train - Blind Joel Taggart
TTITLE14=Hard Time Blues - Lane Hardin
TTITLE15=California Desert Blues - Lane Hardin
TTITLE16=Cartey Blues - Lane Hardin
TTITLE17=Mr. Postman Blues - Jenny Pope
TTITLE18=Rent Man Blues - Jenny Pope
EXTD=YEAR: 2011
EXTT0=
EXTT1=
EXTT2=
EXTT3=
EXTT4=
EXTT5=
EXTT6=
EXTT7=
EXTT8=
EXTT9=
EXTT10=
EXTT11=
EXTT12=
EXTT13=
EXTT14=
EXTT15=
EXTT16=
EXTT17=
EXTT18=
PLAYORDER=
